<?xml version="1.0" encoding="utf-8"?>
<!-- Generator: Adobe Illustrator 27.5.0, SVG Export Plug-In . SVG Version: 6.00 Build 0)  -->
<svg version="1.1" xmlns="http://www.w3.org/2000/svg" xmlns:xlink="http://www.w3.org/1999/xlink" x="0px" y="0px"
	 viewBox="0 0 500 500" style="enable-background:new 0 0 500 500;" xml:space="preserve">
<g id="BACKGROUND">
	<rect style="fill:#FEC853;" width="500" height="500"/>
</g>
<g id="OBJECTS">
	<g>
		
			<ellipse transform="matrix(0.7071 -0.7071 0.7071 0.7071 -97.2536 250.6924)" style="opacity:0.35;fill:#FEFEFE;" cx="253.986" cy="242.742" rx="184.825" ry="184.825"/>
		<g>
			<g>
				<g>
					<ellipse style="fill:#C69A42;" cx="102.93" cy="456.458" rx="71.843" ry="4.009"/>
					<polygon style="fill:#1F9874;" points="133.533,312.05 133.533,449.837 99.495,449.837 103.191,345.967 90.488,449.837 
						56.466,449.837 82.629,312.05 					"/>
					<path style="fill:#CFCFD0;" d="M90.717,225.468l-0.73,0.262c-7.104,2.55-12.242,8.786-13.386,16.246l-5.505,35.898
						l15.238-5.494L90.717,225.468z"/>
					<polygon style="fill:#D18E86;" points="75.624,248.352 71.097,277.874 86.335,272.38 88.375,250.536 					"/>
					<polygon style="fill:#FFFFFF;" points="113.704,221.098 133.533,229.869 133.533,312.05 82.629,312.05 90.717,225.468 					"/>
					<path style="fill:#C73C27;" d="M102.527,195.93c0,0-0.212-2.535,1.324-4.162c1.536-1.626,7.861-4.247,13.735-0.723
						c5.873,3.524,8.855,8.765,6.054,18.885c-2.349,6.596-6.179,8.318-6.179,8.318l-7.898-11.119L102.527,195.93z"/>
					<path style="fill:#A4A4A4;" d="M109.207,239.17l-11.703,43.309c-1.584,5.863-5.733,10.696-11.289,13.15l-2.14,0.945
						l4.194-44.903L109.207,239.17z"/>
					<path style="fill:#A4A4A4;" d="M133.533,288.965c0,0-15.229,1.27-15.229,23.086h15.229V288.965z"/>
					<path style="fill:#F7A89C;" d="M102.597,195.521c0,0-1.955,11.115-1.8,18.449c0.021,0.98,0.799,1.774,1.777,1.842l6.606,0.456
						l-1.228,7.268c-0.406,2.401,1.445,4.59,3.88,4.59h1.175c2.044,0,3.747-1.565,3.921-3.601l1.411-16.583
						C118.339,207.941,104.028,202.251,102.597,195.521z"/>
					<circle style="fill:#F7A89C;" cx="117.948" cy="207.762" r="3.434"/>
					<path style="fill:#C73C27;" d="M104.753,205.592c-0.089,0.969-0.443,1.729-0.791,1.697c-0.348-0.032-0.558-0.844-0.469-1.813
						c0.089-0.969,0.443-1.729,0.791-1.697C104.632,203.811,104.842,204.623,104.753,205.592z"/>
					<path style="fill:none;stroke:#C73C27;stroke-width:1.2021;stroke-linecap:round;stroke-miterlimit:10;" d="M103.473,201.979
						c0,0,1.644-0.271,2.458,0.813"/>
					<path style="fill:#4D3529;" d="M109.18,216.267h3.721c0,0-2.379,7.189-5.053,7.887
						C109.18,216.267,109.18,216.267,109.18,216.267z"/>
					<path style="fill:#F7A89C;" d="M133.533,229.869l4.162,2.045c5.868,2.883,10.535,7.737,13.186,13.714l16.664,37.576
						c3.181,7.172-0.253,15.549-7.553,18.425l-26.459,10.423h-3.926c-3.042,0-5.508-2.466-5.508-5.508v-8.918
						c0-2.283,1.408-4.329,3.539-5.145l17.093-6.542l-13.633-29.344C131.098,256.594,127.007,232.263,133.533,229.869z"/>
					<path style="fill:#4D3529;" d="M99.495,449.837c0,0-3.067-0.476-4.496,5.233c35.203,0,38.533,0,38.533,0v-5.233H99.495z"/>
					<path style="fill:#4D3529;" d="M56.326,449.837c0,0-3.067-0.476-4.496,5.233c35.203,0,38.533,0,38.533,0v-5.233H56.326z"/>
					<path style="fill:#CFCFD0;" d="M150.881,245.627c-2.65-5.976-7.318-10.831-13.186-13.714l-4.162-2.045
						c-6.525,2.394-2.435,26.726-2.435,26.726l4.72,10.159c5.018-3.04,12.728-6.871,20.941-7.872L150.881,245.627z"/>
					<path style="fill:#EF7D6E;" d="M156.759,292.587c0,3.529,1.809,6.632,4.548,8.442c6.386-3.314,9.221-11.1,6.238-17.826
						l-0.317-0.715c-0.118-0.004-0.233-0.018-0.352-0.018C161.289,282.47,156.759,286.999,156.759,292.587z"/>
					<rect x="121.644" y="312.05" style="opacity:0.41;fill:#FFFFFF;" width="11.889" height="137.787"/>
					<path style="fill:#1F9874;" d="M103.145,347.25c0,0-17.06,36.34-23.409,102.577c10.752,0,10.752,0,10.752,0L103.145,347.25z"/>
					<polygon style="fill:#1F9874;" points="82.629,312.05 133.533,323.829 133.533,312.05 					"/>
					<path style="fill:#1F9874;" d="M103.145,347.25v-35.2h-8.146C94.999,312.05,94.002,340.081,103.145,347.25z"/>
					<path style="opacity:0.41;fill:#1F9874;" d="M66.989,404.853c8.372,0,15.159-6.787,15.159-15.159
						c0-7.098-4.885-13.039-11.472-14.689l-5.641,29.707C65.676,404.795,66.325,404.853,66.989,404.853z"/>
					<g style="opacity:0.41;">
						<path style="fill:#1F9874;" d="M103.145,374.535c-0.328,0-0.649,0.028-0.973,0.049l-1.071,30.115
							c0.67,0.091,1.349,0.154,2.044,0.154c8.372,0,15.159-6.787,15.159-15.159S111.517,374.535,103.145,374.535z"/>
					</g>
					<path style="opacity:0.41;fill:#FFFFFF;" d="M127.637,292.48c-2.132,0.816-3.539,2.862-3.539,5.145v8.918
						c0,3.042,2.466,5.509,5.508,5.509h3.926C133.533,293.852,127.637,292.48,127.637,292.48z"/>
					<path style="opacity:0.41;fill:#FFFFFF;" d="M150.881,245.627c-2.151-4.85-5.646-8.939-10.016-11.857
						c-0.513,8.109-0.518,23.602,5.551,34.102c7.697,13.316,13.948,25.559,20.229,28.189c2.314-3.738,2.826-8.515,0.9-12.858
						L150.881,245.627z"/>
					<path style="opacity:0.36;fill:#851619;" d="M103.852,191.768c-1.536,1.626-1.325,4.16-1.324,4.162
						c-0.345,2.056-1.868,11.532-1.731,18.039c0.021,0.98,0.799,1.774,1.777,1.842l3.587,0.247
						c8.552-7.393,3.848-25.127,3.424-26.647C106.847,189.765,104.669,190.903,103.852,191.768z M102.937,196.582l1.551,2.47
						C103.82,198.256,103.286,197.43,102.937,196.582z"/>
					<path style="fill:#F7A89C;" d="M100.682,212.684l-28.655,61.879c-1.971,4.257-0.735,9.311,2.978,12.178l0.168,0.13
						c5.205,4.019,12.804,2.039,15.385-4.009l18.649-43.692c1.373-3.18,0.597-6.879-1.939-9.238l-4.798-4.463l1.254-11.938
						c0.065-0.623-0.242-1.227-0.785-1.54l-0.024-0.014C102.107,211.51,101.074,211.838,100.682,212.684z"/>
					<path style="fill:#EF7D6E;" d="M89.099,285.258c-2.488-5.573-8.068-9.464-14.565-9.464c-1.049,0-2.073,0.108-3.066,0.301
						c-1.081,3.885,0.262,8.116,3.538,10.645l0.168,0.13C79.609,290.296,85.773,289.352,89.099,285.258z"/>
					<path style="opacity:0.41;fill:#FFFFFF;" d="M117.587,191.046c-1.711-1.026-3.457-1.521-5.116-1.681
						c1.602,5.017,5.092,12.43,12.162,15.227C125.176,197.853,122.325,193.889,117.587,191.046z"/>
					
						<line style="fill:none;stroke:#983533;stroke-width:1.133;stroke-miterlimit:10;" x1="144.731" y1="285.938" x2="151.943" y2="282.47"/>
					
						<line style="fill:none;stroke:#983533;stroke-width:1.133;stroke-miterlimit:10;" x1="124.098" y1="299.191" x2="128.815" y2="301.029"/>
					
						<line style="fill:none;stroke:#983533;stroke-width:1.133;stroke-miterlimit:10;" x1="124.098" y1="304.363" x2="128.815" y2="306.201"/>
					<path style="fill:#A4A4A4;" d="M131.098,256.594c0,0-2.572,20.038,2.435,25.875c0.763-18.992,0.763-18.992,0.763-18.992
						L131.098,256.594z"/>
					<path style="opacity:0.41;fill:#CFCFD0;" d="M122.315,248.311c0,0-13.139,39.199-21.214,44.706
						c-8.075,5.507,12.958,3.863,18.115-15.143C124.373,258.869,122.315,248.311,122.315,248.311z"/>
					<path style="opacity:0.41;fill:#FFFFFF;" d="M107.268,229.931l-4.798-4.463c0,0-18.128,28.444-8.721,49.918l15.458-36.217
						C110.581,235.99,109.804,232.29,107.268,229.931z"/>
				</g>
				<g>
					<g>
						<path style="fill:#C69A42;" d="M82.547,111.431c7.477-8.651,17.089-13.778,27.77-13.778c14.205,0,25.42,7.476,25.42,21.895
							c0,13.885-16.983,17.303-16.983,23.711v5.874H98.995l-0.107-8.544c0-9.826,16.982-15.38,16.982-21.255
							c0-4.059-4.165-5.02-7.904-5.02c-4.592,0-10.253,4.486-13.885,8.758L82.547,111.431z M108.287,151.803
							c7.583,0,12.71,5.234,12.71,11.321c0,5.982-4.913,11.002-12.71,11.002c-6.942,0-12.176-5.448-12.176-11.002
							C96.111,157.785,100.597,151.803,108.287,151.803z"/>
					</g>
					<g>
						<path style="fill:#FFFFFF;" d="M85.012,111.431c7.477-8.651,17.089-13.778,27.77-13.778c14.205,0,25.42,7.476,25.42,21.895
							c0,13.885-16.983,17.303-16.983,23.711v5.874H101.46l-0.107-8.544c0-9.826,16.982-15.38,16.982-21.255
							c0-4.059-4.165-5.02-7.904-5.02c-4.592,0-10.253,4.486-13.885,8.758L85.012,111.431z M110.752,151.803
							c7.583,0,12.71,5.234,12.71,11.321c0,5.982-4.913,11.002-12.71,11.002c-6.942,0-12.175-5.448-12.175-11.002
							C98.577,157.785,103.063,151.803,110.752,151.803z"/>
					</g>
					<polygon style="fill:#C69A42;" points="94.082,123.073 96.547,123.073 94.038,120.54 					"/>
				</g>
			</g>
			<g>
				<g style="opacity:0.53;">
					<path style="fill:#FFFFFF;" d="M160.709,59.276c5.718-6.616,13.068-10.536,21.236-10.536c10.863,0,19.439,5.717,19.439,16.743
						c0,10.618-12.987,13.232-12.987,18.132v4.492h-15.11l-0.082-6.534c0-7.514,12.986-11.761,12.986-16.254
						c0-3.104-3.185-3.839-6.044-3.839c-3.512,0-7.84,3.431-10.618,6.698L160.709,59.276z M180.393,90.149
						c5.799,0,9.72,4.003,9.72,8.658c0,4.574-3.757,8.413-9.72,8.413c-5.309,0-9.311-4.166-9.311-8.413
						C171.082,94.724,174.513,90.149,180.393,90.149z"/>
				</g>
				<g style="opacity:0.36;">
					<path style="fill:#FFFFFF;" d="M317.441,120.923c5.063-5.858,11.572-9.33,18.805-9.33c9.62,0,17.214,5.063,17.214,14.827
						c0,9.403-11.5,11.717-11.5,16.057v3.978h-13.38l-0.073-5.786c0-6.654,11.5-10.415,11.5-14.393c0-2.748-2.821-3.399-5.352-3.399
						c-3.11,0-6.943,3.038-9.402,5.931L317.441,120.923z M334.871,148.262c5.135,0,8.607,3.545,8.607,7.667
						c0,4.051-3.327,7.45-8.607,7.45c-4.701,0-8.245-3.689-8.245-7.45C326.626,152.313,329.664,148.262,334.871,148.262z"/>
				</g>
				<g style="opacity:0.21;">
					<path style="fill:#FFFFFF;" d="M344.23,33.431c3.585-4.148,8.194-6.607,13.316-6.607c6.812,0,12.189,3.585,12.189,10.499
						c0,6.658-8.143,8.297-8.143,11.37v2.817h-9.474l-0.051-4.097c0-4.712,8.143-7.375,8.143-10.192c0-1.946-1.997-2.407-3.79-2.407
						c-2.202,0-4.916,2.151-6.658,4.2L344.23,33.431z M356.573,52.79c3.636,0,6.095,2.51,6.095,5.429
						c0,2.868-2.356,5.275-6.095,5.275c-3.329,0-5.838-2.612-5.838-5.275C350.734,55.658,352.885,52.79,356.573,52.79z"/>
				</g>
				<g style="opacity:0.21;">
					<path style="fill:#FFFFFF;" d="M444.267,147.804c2.414-2.793,5.516-4.447,8.964-4.447c4.585,0,8.205,2.413,8.205,7.068
						c0,4.482-5.482,5.585-5.482,7.654v1.896h-6.378l-0.035-2.758c0-3.172,5.482-4.965,5.482-6.861c0-1.31-1.345-1.62-2.551-1.62
						c-1.482,0-3.31,1.448-4.482,2.827L444.267,147.804z M452.576,160.836c2.448,0,4.103,1.689,4.103,3.655
						c0,1.931-1.586,3.551-4.103,3.551c-2.241,0-3.93-1.759-3.93-3.551C448.645,162.767,450.094,160.836,452.576,160.836z"/>
				</g>
				<g style="opacity:0.32;">
					<path style="fill:#FFFFFF;" d="M77.395,43.018c3.949-4.569,9.025-7.276,14.666-7.276c7.502,0,13.425,3.948,13.425,11.563
						c0,7.333-8.969,9.138-8.969,12.523v3.102H86.082l-0.057-4.513c0-5.19,8.969-8.123,8.969-11.225c0-2.144-2.2-2.651-4.174-2.651
						c-2.425,0-5.415,2.369-7.333,4.625L77.395,43.018z M90.989,64.34c4.005,0,6.713,2.764,6.713,5.979
						c0,3.159-2.595,5.81-6.713,5.81c-3.666,0-6.43-2.877-6.43-5.81C84.559,67.499,86.928,64.34,90.989,64.34z"/>
				</g>
				<g style="opacity:0.16;">
					<path style="fill:#FFFFFF;" d="M52.44,111.867c2.651-3.068,6.06-4.886,9.848-4.886c5.037,0,9.014,2.651,9.014,7.764
						c0,4.924-6.022,6.136-6.022,8.408v2.083h-7.007l-0.038-3.03c0-3.485,6.022-5.454,6.022-7.537c0-1.439-1.477-1.78-2.803-1.78
						c-1.628,0-3.636,1.591-4.924,3.106L52.44,111.867z M61.568,126.184c2.689,0,4.507,1.856,4.507,4.015
						c0,2.121-1.742,3.901-4.507,3.901c-2.462,0-4.318-1.932-4.318-3.901C57.25,128.305,58.841,126.184,61.568,126.184z"/>
				</g>
			</g>
			<g>
				<g>
					<g>
						<path style="fill:#C69A42;" d="M362.815,93.966c9.559-11.061,21.849-17.616,35.506-17.616
							c18.163,0,32.501,9.559,32.501,27.995c0,17.753-21.714,22.123-21.714,30.316v7.511h-25.263l-0.137-10.925
							c0-12.563,21.713-19.665,21.713-27.175c0-5.189-5.326-6.418-10.105-6.418c-5.872,0-13.109,5.736-17.753,11.198L362.815,93.966
							z M395.725,145.585c9.696,0,16.251,6.692,16.251,14.475c0,7.648-6.281,14.066-16.251,14.066
							c-8.876,0-15.567-6.965-15.567-14.066C380.158,153.233,385.894,145.585,395.725,145.585z"/>
					</g>
					<g>
						<path style="fill:#FFFFFF;" d="M365.967,93.966c9.559-11.061,21.85-17.616,35.506-17.616c18.163,0,32.501,9.559,32.501,27.995
							c0,17.753-21.713,22.123-21.713,30.316v7.511h-25.263l-0.137-10.925c0-12.563,21.713-19.665,21.713-27.175
							c0-5.189-5.326-6.418-10.105-6.418c-5.872,0-13.109,5.736-17.753,11.198L365.967,93.966z M398.878,145.585
							c9.696,0,16.251,6.692,16.251,14.475c0,7.648-6.281,14.066-16.251,14.066c-8.876,0-15.567-6.965-15.567-14.066
							C383.31,153.233,389.046,145.585,398.878,145.585z"/>
					</g>
					<polygon style="fill:#C69A42;" points="377.563,108.851 380.715,108.851 377.507,105.613 					"/>
				</g>
				<g>
					<ellipse style="fill:#C69A42;" cx="402.06" cy="456.612" rx="69.075" ry="3.854"/>
					<path style="fill:#A4A4A4;" d="M415.586,304.639l20.303,63.051c2.605,8.091,0.702,16.958-4.996,23.267l-45.432,50.308
						c0,0-0.131,14.407-11.656,16.328l-6.723-43.221l41.74-38.899L415.586,304.639z"/>
					<path style="opacity:0.33;fill:#4D3529;" d="M416.54,307.6c0,0,10.349,76.76,0,99.252
						C408.141,387.215,411.675,312.246,416.54,307.6z"/>
					<path style="fill:#ECEDEE;" d="M383.411,305.976c0,0-11.045,22.915-1.441,87.266c9.605,64.351,9.605,64.351,9.605,64.351
						h41.752c0,0-3.262-14.407-14.823-16.808c-10.152-100.097-2.341-117.147-2.917-136.146
						C393.016,302.478,383.411,305.976,383.411,305.976z"/>
					<path style="fill:#4D3529;" d="M391.575,457.594h41.752c0,0-3.262-14.407-14.823-16.808h-29.437
						C391.574,457.591,391.575,457.594,391.575,457.594z"/>
					<path style="fill:#4D3529;" d="M367.083,414.373l6.723,43.221c11.525-1.921,11.656-16.328,11.656-16.328l-6.602-37.869
						L367.083,414.373z"/>
					<g style="opacity:0.41;">
						<path style="fill:#FFFFFF;" d="M415.586,304.639c-1.837-0.176-3.579-0.311-5.247-0.417l-9.838,0.417
							c0,0-10.744,104.158,18.002,136.146C408.351,340.688,416.162,323.638,415.586,304.639z"/>
						<path style="fill:#FFFFFF;" d="M418.503,440.785c3.161,3.517,5.913,4.946,8.308,4.705
							C424.699,443.317,421.978,441.507,418.503,440.785z"/>
					</g>
					<path style="fill:#1F9874;" d="M412.177,203.476c0,0-5.263-3.978-11.676-2.593c-6.412,1.384-15.065,9.345-15.93,27.688
						c-0.865,18.343,2.25,24.573,5.884,24.573c3.634,0,12.806-19.207,12.806-19.207l3.721-17.826
						C406.981,216.111,412.268,206.242,412.177,203.476z"/>
					<path style="fill:#1F9874;" d="M400.501,200.883c-6.412,1.384-15.065,9.345-15.93,27.688
						c-0.493,10.444,0.306,16.957,1.755,20.633c1.308-0.631,2.102-1.985,1.647-4.59c-1.461-8.355,1.679-27.168,8.923-33.857
						c4.322-3.99,5.861-7.757,6.407-10.155C402.403,200.598,401.468,200.674,400.501,200.883z"/>
					<path style="fill:#C73C27;" d="M400.501,231.884l-18.531,11.309l1.441,62.782c0,0,13.927,4.426,32.176-1.337
						c-1.201-34.817-1.201-34.817-1.201-34.817s4.562-5.023,4.082-16.678c-0.48-11.655-4.456-18.948-4.456-18.948l-7.03-2.383
						L400.501,231.884z"/>
					<g>
						<path style="fill:#F7A89C;" d="M381.97,243.194c0,0,6.003,1.654,6.003,11.62s0,30.119,0,30.119h41.54v3.176
							c0,5.272-4.274,9.545-9.545,9.545h-39.764c-3.534,0-6.399-2.865-6.399-6.399v-37.012
							C373.806,254.243,374.767,246.291,381.97,243.194z"/>
						
							<line style="fill:none;stroke:#983533;stroke-width:0.8741;stroke-miterlimit:10;" x1="387.973" y1="284.932" x2="382.951" y2="284.932"/>
					</g>
					<path style="opacity:0.2;fill:#34251E;" d="M402.191,236.107l-0.093-4.24l-1.597,0.017l-18.531,11.31
						c-7.203,3.098-8.165,11.049-8.165,11.049v37.012c0,1.162,0.315,2.249,0.856,3.188c5.364-9.602,3.604-37.655,4.959-41.299
						C381.269,248.709,402.191,236.107,402.191,236.107z"/>
					<path style="fill:#F7A89C;" d="M412.177,203.476c0,0,7.005,7.057,4.378,21.652c-7.589,1.168-7.589,1.168-7.589,1.168v16.898
						c0,0-8.465-1.323-8.465-9.256c0-7.934,0-18.977,0-18.977S409.842,211.013,412.177,203.476z"/>
					<path style="fill:none;stroke:#4D3529;stroke-width:1.0318;stroke-miterlimit:10;" d="M411.913,213.342
						c0,0-2.769-0.173-4.845,0.865"/>
					<path style="fill:#4D3529;" d="M408.966,226.295l-4.494,0.718c0,0,2.077,5.887,5.018,6.924
						C408.966,226.295,408.966,226.295,408.966,226.295z"/>
					<circle style="fill:#F7A89C;" cx="399.107" cy="218.361" r="4.153"/>
					<path style="fill:none;stroke:#1F9874;stroke-width:1.0318;stroke-linecap:round;stroke-miterlimit:10;" d="M411.913,209.881
						c0,0-3.068-0.536-4.845,0.875"/>
					<polygon style="fill:#34251E;" points="387.973,251.977 393.976,284.932 387.973,284.932 					"/>
					<path style="opacity:0.41;fill:#FFFFFF;" d="M414.386,269.823c0,0-15.208,9.883-12.727,9.883s13.008-1.719,13.008-1.719
						L414.386,269.823z"/>
					<path style="opacity:0.26;fill:#FFFFFF;" d="M405.292,200.747c-0.698,5.739-1.546,19.14,4.571,25.411
						c0.929-0.143,2.819-0.434,6.692-1.03c2.627-14.594-4.378-21.652-4.378-21.652S409.336,201.339,405.292,200.747z"/>
					<path style="fill:#4D3529;" d="M401.659,223.497c0,1.181-0.958,2.139-2.139,2.139c-1.181,0-2.139-0.958-2.139-2.139
						c0-1.182,0.958-2.139,2.139-2.139C400.702,221.358,401.659,222.316,401.659,223.497z"/>
					<path style="fill:#FEC853;" d="M422.657,444.334c0,0.653-0.53,1.183-1.183,1.183h-18.232c-0.653,0-1.183-0.53-1.183-1.183l0,0
						c0-0.653,0.53-1.183,1.183-1.183h18.232C422.128,443.151,422.657,443.681,422.657,444.334L422.657,444.334z"/>
					<path style="opacity:0.49;fill:none;stroke:#4D3529;stroke-width:1.0318;stroke-miterlimit:10;" d="M390.974,306.669
						c0,0-7.248,70.549,7.327,136.482"/>
					<path style="fill:#4D3529;" d="M416.832,216.521l-1.899,0.475C414.932,216.996,416.774,218.201,416.832,216.521z"/>
					<path style="fill:#EF7D6E;" d="M414.369,225.464c0,0,0-2.968,0.372-3.426c0.973,3.219,0.973,3.219,0.973,3.219L414.369,225.464
						z"/>
					<g>
						<path style="fill:#F7A89C;" d="M414.011,234.196c1.462-2.556,3.133-5.625,3.133-5.625l-2.417-5.597
							c-0.126-0.293-0.125-0.625,0.005-0.917l0.009-0.019c0.314-0.707,1.224-0.904,1.802-0.392l8.158,7.227
							c0.917,0.812,1.585,1.867,1.928,3.042l13.156,45.116c1.161,3.983-0.979,8.181-4.884,9.58l-0.15,0.054
							c-4.262,1.527-8.929-0.861-10.183-5.211l-11.453-39.722C412.384,239.202,412.704,236.482,414.011,234.196z"/>
						<path style="fill:#EF7D6E;" d="M440.075,279.73c-1.43-1.09-3.21-1.744-5.147-1.744c-4.136,0-7.58,2.95-8.349,6.86
							c2.072,2.053,5.218,2.877,8.172,1.818l0.15-0.054C437.922,285.528,439.878,282.768,440.075,279.73z"/>
						<path style="opacity:0.41;fill:#FFFFFF;" d="M424.701,257.6c4.423,12.199,11.082,18.957,15.367,22.273
							c0.077-0.932-0.007-1.893-0.283-2.841l-13.156-45.116c-0.343-1.176-1.011-2.23-1.927-3.042
							C424.701,228.873,417.725,238.361,424.701,257.6z"/>
					</g>
				</g>
			</g>
			<g>
				<g>
					<g>
						<g>
							<g>
								<path style="fill:#49BD97;" d="M369.735,361.808c0,0-8.442,16.594-22.044,12.661
									C351.148,360.738,369.735,361.808,369.735,361.808z"/>
								<path style="fill:#1F9874;" d="M335.66,352.074c0,0-1.597,18.549,12.03,22.395
									C352.008,360.984,335.66,352.074,335.66,352.074z"/>
							</g>
							<g>
								<path style="fill:#49BD97;" d="M362.885,386.924c0,0-11.368,14.745-24.007,8.362
									C344.817,382.432,362.885,386.924,362.885,386.924z"/>
								<path style="fill:#1F9874;" d="M331.201,371.051c0,0-5.003,17.933,7.677,24.234
									C345.617,382.833,331.201,371.051,331.201,371.051z"/>
							</g>
							<g>
								<path style="fill:#49BD97;" d="M352.277,409.398c0,0-13.687,12.621-25.072,4.202
									C335.223,401.93,352.277,409.398,352.277,409.398z"/>
								<path style="fill:#1F9874;" d="M323.716,388.42c0,0-7.949,16.836,3.489,25.181
									C335.944,402.46,323.716,388.42,323.716,388.42z"/>
							</g>
							<path style="fill:none;stroke:#49BD97;stroke-width:2.0305;stroke-linecap:round;stroke-miterlimit:10;" d="M303.325,437.728
								c0,0,41.505-30.929,48.986-83.343"/>
							<path style="fill:#49BD97;" d="M355.185,333.013c0,0,7.682,16.959-3.887,25.122
								C342.737,346.857,355.185,333.013,355.185,333.013z"/>
						</g>
						<path style="fill:#49BD97;" d="M265.61,455.745c0,0,10.27-92.967,50.794-101.361c40.524-8.394,4.779,54.583-6.452,73.667
							c-11.231,19.084,10.775,3.468,24.029-6.679C344.524,413.3,347.957,460.537,265.61,455.745z"/>
						<path style="fill:#1F9874;" d="M295.276,388.077c3.604-17.172,32.972-33.665,33.021-33.692
							c-2.887-0.981-6.781-1.06-11.892-0.001c-40.524,8.394-50.794,101.361-50.794,101.361c1.574,0.092,3.105,0.158,4.617,0.212
							c0.219-0.03,0.434-0.052,0.655-0.086C313.469,449.4,294.121,400.557,295.276,388.077z"/>
						<path style="fill:none;stroke:#1F9874;stroke-width:1.0731;stroke-miterlimit:10;" d="M330.819,355.634
							c0,0-28.814,20.283-43.501,80.115"/>
						<path style="fill:#1F9874;" d="M333.981,421.372c-8.882,6.8-21.682,16.042-25.787,15.664c5,8.335,24.414-7.921,30.965-13.783
							C338.437,420.583,336.398,419.521,333.981,421.372z"/>
						<path style="fill:none;stroke:#1F9874;stroke-width:1.0731;stroke-miterlimit:10;" d="M329.46,389.694
							c0,0-13.189-1.602-26.934,3.686"/>
						<g>
							<g>
								<path style="fill:#49BD97;" d="M154.542,336.21c0,0,7.016,20.779,23.54,18.51C176.39,338.127,154.542,336.21,154.542,336.21
									z"/>
								<path style="fill:#1F9874;" d="M195.916,330.664c0,0-1.296,21.894-17.834,24.056
									C175.345,338.267,195.916,330.664,195.916,330.664z"/>
							</g>
							<g>
								<path style="fill:#49BD97;" d="M158.252,366.652c0,0,10.741,19.121,26.56,13.832
									C180.077,364.491,158.252,366.652,158.252,366.652z"/>
								<path style="fill:#1F9874;" d="M197.885,353.543c0,0,2.779,21.755-13.073,26.942
									C179.076,364.822,197.885,353.543,197.885,353.543z"/>
							</g>
							<g>
								<path style="fill:#49BD97;" d="M166.792,394.654c0,0,13.806,17.041,28.509,9.165
									C187.942,388.851,166.792,394.654,166.792,394.654z"/>
								<path style="fill:#1F9874;" d="M203.653,375.062c0,0,6.401,20.977-8.352,28.758
									C187.011,389.346,203.653,375.062,203.653,375.062z"/>
							</g>
							<path style="fill:none;stroke:#49BD97;stroke-width:2.3918;stroke-linecap:round;stroke-miterlimit:10;" d="M219.03,436.007
								c0,0-43.115-43.115-42.916-105.483"/>
							<path style="fill:#49BD97;" d="M176.402,305.122c0,0-11.841,18.461,0.256,29.945
								C188.556,323.378,176.402,305.122,176.402,305.122z"/>
						</g>
					</g>
					<ellipse style="fill:#C69A42;" cx="250.793" cy="456.458" rx="71.843" ry="4.009"/>
					<g>
						<g>
							<g>
								<path style="fill:#AD843B;" d="M140.512,213.272c28.759-33.277,65.732-52.996,106.816-52.996
									c54.64,0,97.776,28.758,97.776,84.219c0,53.408-65.323,66.554-65.323,91.204v22.595H203.78l-0.412-32.866
									c0-37.796,65.32-59.159,65.32-81.754c0-15.611-16.022-19.309-30.401-19.309c-17.664,0-39.437,17.255-53.407,33.688
									L140.512,213.272z M239.521,368.562c29.168,0,48.889,20.133,48.889,43.548c0,23.008-18.897,42.317-48.889,42.317
									c-26.702,0-46.832-20.954-46.832-42.317C192.688,391.57,209.943,368.562,239.521,368.562z"/>
							</g>
							<g>
								<path style="fill:#FFFFFF;" d="M149.995,213.272c28.759-33.277,65.732-52.996,106.816-52.996
									c54.64,0,97.776,28.758,97.776,84.219c0,53.408-65.323,66.554-65.323,91.204v22.595h-76.001l-0.412-32.866
									c0-37.796,65.32-59.159,65.32-81.754c0-15.611-16.022-19.309-30.401-19.309c-17.664,0-39.437,17.255-53.407,33.688
									L149.995,213.272z M249.003,368.562c29.168,0,48.889,20.133,48.889,43.548c0,23.008-18.897,42.317-48.889,42.317
									c-26.702,0-46.832-20.954-46.832-42.317C202.171,391.57,219.426,368.562,249.003,368.562z"/>
							</g>
							<polygon style="fill:#AD843B;" points="184.881,258.053 194.364,258.053 184.711,248.311 							"/>
						</g>
						<path style="opacity:0.66;fill:#C69A42;" d="M222.901,232.963l-6.605-50.529l12.133-20.742
							c-10.151,1.534-19.989,4.3-29.45,8.183c-5.429,9.482-12.151,23.941-9.441,33.681c4.339,15.593,17.679,37.692,17.679,37.692
							L222.901,232.963z"/>
						<path style="opacity:0.66;fill:#C69A42;" d="M297.892,248.311c0,0-3.306,12.176-10.737,7.067
							c-7.431-5.109-18.974-16.208-18.974-16.208l12.286-45.989l-32.945-20.06l6.462-12.844l50.134,29.903L297.892,248.311z"/>
					</g>
				</g>
				<g>
					<g>
						<path style="fill:#C73C27;" d="M254.759,154.305v18.815l12.767,2.171l24.039,13.334l-18.403,47.883l24.409,15.073
							c2.911,1.798,6.628-0.363,6.548-3.784c-0.072-3.083-0.5-6.832-1.742-10.683l16.407-42.313
							c3.77-9.721-0.386-20.722-9.642-25.523l-32.374-16.792L254.759,154.305z"/>
						<path style="fill:#1F9874;" d="M273.161,236.508l24.409,15.073c2.911,1.798,6.628-0.363,6.548-3.783
							c-0.072-3.084-0.5-6.832-1.742-10.683c0,0-13.313-2.794-24.214-13.618L273.161,236.508z"/>
						<path style="fill:#C73C27;" d="M254.759,173.12h-7.235l-19.699,23.385l6.97,47.276l-25.084,11.262
							c-2.43,1.091-5.173-0.614-5.309-3.274c-0.181-3.566,0.116-8.349,2.208-12.534l-5.801-44.644
							c-0.737-5.673,1.201-11.366,5.246-15.411l26.693-26.694l22.01,1.818V173.12z"/>
						<path style="fill:#1F9874;" d="M234.796,243.782l-2.457-16.663l0,0c-12.76,13.945-25.727,12.117-25.727,12.117
							c-2.092,4.185-2.39,8.969-2.208,12.534c0.135,2.66,2.879,4.364,5.309,3.273L234.796,243.782z"/>
						<path style="opacity:0.22;fill:#ECEDEE;" d="M311.334,170.618c-2.517,2.67-4.071,6.258-4.071,10.217
							c0,6.998,4.827,12.853,11.329,14.459l0.191-0.493C322.239,185.89,319.021,175.919,311.334,170.618z"/>
						<path style="opacity:0.22;fill:#ECEDEE;" d="M213.777,187.448c0-4.347-2.186-8.181-5.515-10.473l-2.206,2.206
							c-4.045,4.045-5.983,9.738-5.246,15.411l0.72,5.543C208.333,199.888,213.777,194.311,213.777,187.448z"/>
						<path style="fill:#34251E;" d="M276.768,152.487l-19.556,1.616c-1.733,6.453-2.243,14.694-2.391,19.028l12.705,2.161
							l14.98,8.309c3.28-10.481,7.864-17.828,11.29-22.282L276.768,152.487z"/>
						<path style="fill:#34251E;" d="M303.327,240.763c-0.246-1.195-0.552-2.415-0.951-3.648c0,0-6.279-1.318-13.744-5.65
							C289.704,234.483,293.043,239.049,303.327,240.763z"/>
						<path style="fill:#34251E;" d="M220.18,236.365c-7.712,3.689-13.569,2.871-13.569,2.871c-0.737,1.474-1.241,3.021-1.59,4.564
							C209.606,243.5,216.627,242.055,220.18,236.365z"/>
						<path style="opacity:0.22;fill:#ECEDEE;" d="M232.749,152.487l-26.693,26.694c-4.045,4.045-5.983,9.738-5.246,15.411
							l0.101,0.775c21.708-3.342,39.383-30.409,45.891-41.719L232.749,152.487z"/>
						<path style="fill:#D18E86;" d="M232.749,83.391c0,0-7.575,3.182-11.666,12.728c-4.091,9.546-10.367,29.821-10.367,29.821
							l22.033-8.456V83.391z"/>
						<path style="fill:#1F9874;" d="M254.759,74.754l-22.01,8.637v69.096c0,0,7.653,1.818,22.01,1.818s22.01-1.818,22.01-1.818
							V83.391L254.759,74.754z"/>
						<path style="fill:#187757;" d="M232.749,83.391c0,0-7.575,3.182-11.666,12.728c-1.238,2.889-2.676,6.761-4.079,10.756
							c4.179,0.94,10.735,2.902,15.746,6.629V83.391z"/>
						<polygon style="fill:#1F9874;" points="256.688,88.417 232.749,137.486 232.749,117.316 						"/>
						<path style="fill:#1F9874;" d="M269.475,102.267c0,0,1.344,29.987,0,36.808c-1.344,6.821-5.391,15.661-5.391,24.727
							c0,9.066,12.684-18.15,12.684-18.15v-27.334L269.475,102.267z"/>
						<path style="fill:#F7A89C;" d="M276.768,83.391l0.111,0.05c6.865,3.082,11.674,9.465,12.742,16.914l5.023,35.962
							c0.634,4.542-0.514,9.153-3.205,12.867l-11.944,16.486v15.893c0,2.052-1.937,3.541-3.923,3.024
							c-4.566-1.188-11.489-3.668-11.489-7.781v-13.005c0-3.536,0.97-7.004,2.803-10.027l9.881-16.289l-7.046-32.73
							C269.723,104.756,266.995,86.573,276.768,83.391z"/>
						<path style="fill:#49BD97;" d="M291.564,114.261l-1.942-13.906c-1.069-7.449-5.877-13.832-12.742-16.914l-0.111-0.05
							c-9.773,3.182-7.046,21.365-7.046,21.365l2.497,11.6C276.188,114.912,283.119,113.166,291.564,114.261z"/>
						<path style="fill:#EF7D6E;" d="M288.133,141.577c0,2.929,1.427,5.519,3.617,7.133c2.457-3.63,3.503-8.039,2.895-12.393
							l-0.44-3.148C290.679,134.339,288.133,137.658,288.133,141.577z"/>
						
							<line style="fill:none;stroke:#983533;stroke-width:0.9092;stroke-miterlimit:10;" x1="276.768" y1="137.486" x2="280.469" y2="131.726"/>
						<path style="fill:#F7A89C;" d="M254.808,81.856h-0.105c-2.877,0-5.209-2.332-5.209-5.209v-8.662h10.522v8.662
							C260.016,79.524,257.684,81.856,254.808,81.856z"/>
						<path style="fill:#4D3529;" d="M262.294,60.736c0,0,1.326-1.521,1.326-4.362c0-2.841,0.586-8.687-3.604-11.122
							c-4.19-2.435-12.552-6.17-11.253-3.085c1.299,3.085,0.325,2.679-2.517,2.598c-2.842-0.081-2.272,9.724,0,13.558
							C248.519,62.156,262.294,60.736,262.294,60.736z"/>
						<path style="fill:#F7A89C;" d="M249.494,61.123c0,1.547-1.127,2.801-2.517,2.801c-1.39,0-2.517-1.254-2.517-2.801
							c0-1.547,1.127-2.801,2.517-2.801C248.367,58.322,249.494,59.576,249.494,61.123z"/>
						<path style="fill:#F7A89C;" d="M260.016,61.123c0,1.547,1.127,2.801,2.517,2.801c1.39,0,2.517-1.254,2.517-2.801
							c0-1.547-1.127-2.801-2.517-2.801C261.143,58.322,260.016,59.576,260.016,61.123z"/>
						<path style="fill:#F7A89C;" d="M254.831,72.479h-0.151c-4.122,0-7.463-3.341-7.463-7.463V54.42
							c0-2.997,2.43-5.427,5.427-5.427h4.224c2.997,0,5.427,2.43,5.427,5.427v10.596C262.294,69.137,258.952,72.479,254.831,72.479z
							"/>
						<path style="fill:#983533;" d="M249.494,67.985v8.662c0,0.145,0.01,0.286,0.022,0.428c6.833-0.037,10.501-6.7,10.501-6.7
							l-5.815-2.391H249.494z"/>
						<path style="fill:#4D3529;" d="M251.93,57.916c0,0.583-0.254,1.055-0.568,1.055c-0.314,0-0.568-0.473-0.568-1.055
							c0-0.583,0.254-1.055,0.568-1.055C251.675,56.861,251.93,57.333,251.93,57.916z"/>
						<path style="fill:none;stroke:#4D3529;stroke-width:0.9092;stroke-linecap:round;stroke-miterlimit:10;" d="M252.823,54.425
							c0,0-1.867-0.893-3.329,0"/>
						<ellipse style="fill:#4D3529;" cx="258.149" cy="57.916" rx="0.568" ry="1.055"/>
						<path style="fill:none;stroke:#4D3529;stroke-width:0.9092;stroke-linecap:round;stroke-miterlimit:10;" d="M256.688,54.425
							c0,0,1.867-0.893,3.328,0"/>
						<path style="fill:#4D3529;" d="M258.149,63.68c-3.394-0.528-2.03-0.528-3.394-0.528c-1.364,0,0,0-3.394,0.528
							c-3.394,0.528-4.145-5.358-4.145-5.358v6.693c0,4.122,3.341,7.463,7.463,7.463h0.075h0.075c4.122,0,7.463-3.341,7.463-7.463
							v-6.693C262.294,58.322,261.543,64.208,258.149,63.68z"/>
						<path style="fill:#F7A89C;" d="M211.361,124.882l40.419-56.08c0.509-0.706,1.517-0.814,2.164-0.234l0.02,0.018
							c0.473,0.425,0.618,1.107,0.358,1.687l-2.527,5.644l2.342,2.064c3.52,3.102,4.214,8.323,1.628,12.238l-29.649,44.871
							c-2.925,4.426-9.052,5.318-13.117,1.909l-0.141-0.118C209.294,133.889,208.641,128.656,211.361,124.882z"/>
						<path style="fill:#EF7D6E;" d="M212.559,127.03c-0.84,0-1.652,0.111-2.434,0.3c-1.092,3.359-0.107,7.166,2.734,9.549
							l0.141,0.118c2.88,2.415,6.79,2.662,9.868,1.033c0.014-0.219,0.033-0.436,0.033-0.658
							C222.901,131.66,218.271,127.03,212.559,127.03z"/>
						
							<line style="fill:none;stroke:#983533;stroke-width:0.9092;stroke-miterlimit:10;" x1="269.373" y1="182.434" x2="269.373" y2="170.618"/>
						<path style="opacity:0.41;fill:#FFFFFF;" d="M291.44,149.183c2.691-3.714,3.839-8.325,3.205-12.867l-5.023-35.962
							c-0.766-5.336-3.458-10.118-7.443-13.538c-0.988,4.401-2.601,15.704,0.58,35.003c4.221,25.608-3.262,43.851-3.262,43.851
							L291.44,149.183z"/>
						<path style="opacity:0.41;fill:#FFFFFF;" d="M265.05,61.123c0-1.228-0.715-2.26-1.703-2.638
							c0.157-0.595,0.273-1.291,0.273-2.111c0-2.841,0.586-8.687-3.604-11.122c-0.052-0.03-0.108-0.062-0.161-0.092
							c-0.162,1.486-0.485,3.174-1.138,4.164c-0.828,2.285-3.939,17.272-0.026,22.07c2.157-1.308,3.602-3.671,3.602-6.378v-1.118
							c0.08,0.009,0.157,0.027,0.239,0.027C263.923,63.924,265.05,62.67,265.05,61.123z"/>
						<path style="opacity:0.41;fill:#FFFFFF;" d="M254.137,77.98c0,0-27.104,34.727-25.799,53.746l0,0l27.427-41.508
							C258.351,86.304,257.657,81.082,254.137,77.98z"/>
						<path style="fill:#49BD97;" d="M257.803,114.529c-3.368,7.308-17.671,20.637-25.055,27.223v10.735
							C257.654,145.464,262.393,104.569,257.803,114.529z"/>
					</g>
					<polyline style="opacity:0.41;fill:none;stroke:#34251E;stroke-miterlimit:10;" points="224.876,233.65 220.18,195.295 
						247.524,165.65 257.581,165.65 					"/>
					<polyline style="opacity:0.41;fill:none;stroke:#34251E;stroke-miterlimit:10;" points="282.024,173.926 299.364,184.691 
						283.558,228.125 					"/>
				</g>
			</g>
		</g>
	</g>
</g>
</svg>
